<svg width="20" height="20" viewBox="0 0 40 40" fill="none" xmlns="http://www.w3.org/2000/svg">
<g id="clip">
<path id="Shape" d="M36.9739 4.62689C32.9391 0.535829 26.3963 0.535829 22.3616 4.62689L2.27048 24.9981C-0.756828 28.0676 -0.756828 33.0413 2.27048 36.1109C4.7657 38.6409 8.52925 39.0495 11.4714 37.4073C11.7787 37.3916 12.0809 37.2738 12.316 37.0381L32.407 16.6669C34.4244 14.6214 34.4244 11.3056 32.407 9.26013C30.3897 7.21465 27.1195 7.21465 25.1022 9.26013L8.66355 25.9279C8.15982 26.4387 8.15982 27.2689 8.66355 27.7796C9.16729 28.2903 9.98612 28.2903 10.4897 27.7796L26.9284 11.1118C27.9383 10.0877 29.5734 10.0877 30.5808 11.1118C31.5908 12.1358 31.5908 13.7937 30.5808 14.8152L11.4016 34.2618C9.3843 36.3073 6.11412 36.3073 4.09678 34.2618C2.07945 32.2163 2.07945 28.9005 4.09678 26.8551L24.1878 6.47854C27.2151 3.40901 32.1203 3.40901 35.1477 6.47854C38.175 9.54808 38.175 14.5217 35.1477 17.5914L16.8829 36.1109C16.3792 36.6217 16.3792 37.4519 16.8829 37.9626C17.3867 38.4733 18.2055 38.4733 18.7091 37.9626L36.9739 19.443C41.0087 15.3521 41.0087 8.71795 36.9739 4.62689Z" fill="#BBC3CF"/>
</g>
</svg>
